PathFileType  4	(X/Y/Z) C:\Users\antoi\Documents\MyRepositories\mobilecap\ResultsAnalysis
DataRate	CameraRate	NumFrames	NumMarkers	Units	OrigDataRate	OrigDataStartFrame	OrigNumFrames
100.0	100.0	4	51	mm	100.0	172	275
Frame#	Time	r_knee			r_shank_antsup			r_ankle			r_calc			r_5meta			r_toe			L_knee			L_shank_antsup			L_ankle			L_calc			L_5meta			L_toe			r_sh2			r_sh3			r_sh4			L_sh2			L_sh3			r_thigh1			r_thigh2			r_thigh3			r_thigh4			r_thigh5			L_thigh1			L_thigh2			L_thigh3			L_thigh4			r.ASIS			r.PSIS			L.ASIS			L.PSIS			C7			R_Shoulder			L_Shoulder			R_Sternum			L_Sternum			R_humerus			R_elbow_med			R_elbow_lat			R_forearm			R_wrist_radius			R_wrist_ulna			L_humerus			L_elbow_med			L_elbow_lat			L_forearm			L_wrist_radius			L_wrist_ulna			R_HJC			L_HJC			R_HJC_reg			L_HJC_reg			
		X1	Y1	Z1	X2	Y2	Z2	X3	Y3	Z3	X4	Y4	Z4	X5	Y5	Z5	X6	Y6	Z6	X7	Y7	Z7	X8	Y8	Z8	X9	Y9	Z9	X10	Y10	Z10	X11	Y11	Z11	X12	Y12	Z12	X13	Y13	Z13	X14	Y14	Z14	X15	Y15	Z15	X16	Y16	Z16	X17	Y17	Z17	X18	Y18	Z18	X19	Y19	Z19	X20	Y20	Z20	X21	Y21	Z21	X22	Y22	Z22	X23	Y23	Z23	X24	Y24	Z24	X25	Y25	Z25	X26	Y26	Z26	X27	Y27	Z27	X28	Y28	Z28	X29	Y29	Z29	X30	Y30	Z30	X31	Y31	Z31	X32	Y32	Z32	X33	Y33	Z33	X34	Y34	Z34	X35	Y35	Z35	X36	Y36	Z36	X37	Y37	Z37	X38	Y38	Z38	X39	Y39	Z39	X40	Y40	Z40	X41	Y41	Z41	X42	Y42	Z42	X43	Y43	Z43	X44	Y44	Z44	X45	Y45	Z45	X46	Y46	Z46	X47	Y47	Z47	X48	Y48	Z48	X49	Y49	Z49	X50	Y50	Z50	X51	Y51	Z51	

172	1.71000000	-92.95563	393.02757	-434.23625	-87.77609	282.64388	-441.37958	-300.15665	98.91361	-437.80590	-364.72610	61.95451	-483.07102	-217.52575	43.74558	-377.70830	-171.89676	53.58211	-416.11594	-96.24962	400.83699	-817.29609	-81.43062	283.13429	-782.72439	-313.66005	109.29037	-819.72479	-373.67481	71.73032	-776.02994	-222.82490	40.43842	-865.25107	-174.08516	49.83437	-817.16882	-158.55205	193.48144	-446.34722	-136.53442	315.87626	-396.37483	-216.90864	240.76166	-407.34779	-119.07054	340.54779	-846.36087	-196.57345	248.70890	-864.08193	-298.20097	604.40596	-436.34214	-206.59023	559.78736	-438.57944	-204.51802	501.52918	-399.44298	-348.22200	509.54388	-399.64864	-242.90722	461.00171	-398.15269	-303.50759	591.25636	-795.86226	-179.50494	541.86234	-797.09412	-360.94200	498.68470	-828.24348	-228.14203	448.64398	-831.46192	-299.05100	608.47329	-491.44377	-460.17611	711.56054	-552.37707	-296.03194	608.37825	-725.75990	-461.58485	714.99794	-668.06068	-201.36430	1071.02100	-587.29342	-151.59251	1012.35870	-440.78484	-140.24295	1020.95900	-738.64476	-102.12383	972.89334	-567.57163	-102.68410	969.82483	-608.19969	-133.56852	903.16305	-377.63634	-169.39137	686.87345	-390.97061	-139.70727	713.76575	-326.30826	-55.59345	616.87210	-303.00980	3.20986	528.50422	-302.10491	-22.79704	514.17038	-279.59474	-116.86423	897.60843	-811.77915	-133.79140	691.10765	-805.54389	-115.53238	719.90231	-868.22986	-37.42988	657.88682	-900.40933	45.69739	550.86115	-908.47283	20.94549	532.94458	-922.79766	-408.80423	571.76668	-511.99706	-404.76384	568.39845	-701.30167	-387.61681	567.39283	-524.04972	-389.49969	571.98650	-678.63162	
173	1.72000000	-90.70640	391.37676	-435.18783	-86.27098	281.29950	-442.35038	-299.48435	99.15622	-438.84981	-364.41599	62.14861	-483.82966	-217.42846	43.92201	-377.97942	-171.70427	53.51961	-416.30596	-95.09490	401.63186	-817.21620	-81.55550	284.45503	-783.37108	-313.00843	109.86059	-819.84151	-373.27664	72.91339	-776.29730	-222.66516	40.63004	-865.27316	-173.87493	49.76979	-817.17207	-157.74827	192.93987	-447.18563	-135.25513	315.50852	-396.46624	-216.37122	240.26784	-408.47785	-117.53008	341.27504	-846.64337	-195.60127	249.53271	-864.66956	-295.34063	605.33773	-435.60905	-204.63220	559.13287	-437.29895	-202.23540	501.95785	-398.96466	-345.60597	510.42986	-399.20916	-240.87585	461.72217	-397.80915	-301.25181	593.75554	-794.85009	-178.50521	543.66995	-797.44154	-358.94892	501.29490	-826.83392	-226.63355	450.95173	-831.50229	-296.75796	611.52651	-490.37259	-459.36670	713.66367	-552.00386	-294.52327	612.29662	-725.30726	-461.43450	716.68985	-667.62475	-205.86121	1077.94037	-587.11403	-154.38590	1021.92075	-442.03850	-143.91780	1030.95139	-737.21152	-105.18875	981.76855	-567.77892	-105.26111	978.56411	-608.95722	-124.97535	918.82823	-378.45260	-135.62558	700.15951	-388.25989	-107.53808	731.37131	-324.25003	-10.14014	646.87035	-303.74703	60.05641	567.47194	-304.27362	36.68451	550.14861	-280.66848	-108.00276	914.70885	-810.70218	-100.56773	709.70503	-806.39614	-85.61353	739.61512	-869.35543	3.42253	689.33769	-898.12392	99.88610	594.73040	-902.96583	78.65151	573.39801	-918.43184	-406.53767	574.08618	-511.43303	-402.66589	570.86579	-700.74401	-385.14410	570.46835	-522.44975	-387.91618	574.52478	-677.43509	
174	1.73000000	-89.62587	390.51678	-435.98950	-85.36200	280.68110	-442.97921	-299.54959	100.76212	-437.51225	-364.24061	62.36665	-484.30161	-217.38868	44.04414	-378.10830	-171.62363	53.48707	-416.41638	-94.15142	402.34461	-815.69986	-81.39050	285.52854	-783.51374	-312.17751	109.99927	-819.75226	-373.12811	74.16010	-776.80713	-222.49606	40.81378	-865.23362	-173.76965	49.81994	-817.19503	-157.29875	192.47502	-448.14555	-134.48561	315.32767	-396.72979	-216.06881	239.70124	-409.61972	-116.81302	341.75553	-846.63890	-194.84911	250.23294	-864.97743	-293.39915	606.55390	-434.18544	-202.42065	558.98774	-436.71705	-199.76988	502.60900	-398.71987	-343.18161	511.94357	-398.98300	-238.88113	462.36285	-397.97028	-299.29078	596.53324	-794.10537	-177.01287	546.02338	-797.16321	-357.46114	504.51259	-826.10617	-225.61200	453.17873	-831.36061	-294.09281	615.95369	-488.31917	-458.17835	717.28505	-551.52530	-293.85573	617.02377	-725.58078	-460.93206	719.88010	-667.22302	-209.98923	1085.47031	-586.58069	-156.78420	1033.18437	-443.56236	-147.85916	1042.01582	-735.16137	-107.87706	990.70180	-567.52563	-107.72757	988.00161	-610.03423	-116.82588	936.99392	-379.48985	-103.20197	719.01478	-385.69466	-77.07911	754.53455	-321.83759	32.12458	683.80372	-305.35644	112.84022	615.47869	-308.13802	93.22332	594.90596	-283.91992	-99.27604	934.11077	-808.80151	-65.64005	731.13162	-806.47280	-55.99065	764.55544	-870.70726	41.34029	727.42220	-894.85938	149.07008	646.81422	-896.23809	131.69545	622.44251	-912.24502	-404.23602	578.08421	-510.46102	-401.09256	574.47724	-699.77715	-383.10636	574.24560	-520.13181	-386.83191	577.75522	-676.64361	
175	1.74000000	-89.10096	390.76070	-436.18302	-85.18777	280.72678	-443.50125	-299.84524	101.61457	-436.69619	-364.08345	62.59888	-484.58600	-217.36665	44.14436	-378.16645	-171.58644	53.47293	-416.52053	-93.93616	402.82161	-814.35809	-80.97599	285.95387	-783.08003	-311.68845	110.13149	-819.60150	-373.00177	75.02799	-777.16998	-222.38602	40.97768	-865.13381	-173.72831	49.92592	-817.17970	-157.00526	192.26902	-448.68482	-134.02196	315.21643	-397.27483	-215.97488	239.14574	-410.71795	-116.67319	342.10004	-846.22161	-194.45946	250.63394	-864.87766	-290.25943	609.00571	-433.45444	-199.40722	560.01044	-436.82498	-197.34711	503.29701	-398.55855	-340.94575	514.30486	-399.13833	-237.00170	463.44663	-398.25061	-297.48450	599.67487	-793.75437	-175.78480	548.46174	-797.24452	-356.41694	508.01918	-825.06141	-224.92508	455.34219	-830.78453	-291.99607	622.37319	-485.93056	-456.65430	722.14168	-550.90291	-293.53772	622.38059	-726.09179	-459.90431	724.56386	-666.61558	-213.67697	1093.61698	-585.89174	-158.77818	1045.59986	-445.36051	-151.57357	1054.41040	-732.70096	-109.99263	1000.26195	-567.22396	-109.70510	997.75751	-610.71834	-109.08026	957.10931	-380.83235	-72.77103	742.64969	-382.12584	-48.72271	782.52489	-319.04241	70.59477	727.34037	-307.67225	160.47003	672.03592	-313.79362	145.36366	648.35224	-289.38947	-91.18611	955.81914	-806.22465	-34.05287	756.73959	-808.31280	-28.16834	794.58003	-872.59809	74.94657	771.20737	-891.42058	192.16810	705.95280	-889.02272	178.87497	679.07962	-904.80903	-402.14017	583.81256	-509.08610	-399.83066	579.20832	-698.39231	-381.51292	578.73806	-517.82259	-385.96238	582.05502	-676.23793	
